<svg xmlns="http://www.w3.org/2000/svg" xmlns:xlink="http://www.w3.org/1999/xlink" version="1.0" x="0px" y="0px" viewBox="0 0 24 24" enable-background="new 0 0 24 24" xml:space="preserve"><circle cx="12" cy="4" r="2"></circle><line stroke="#000000" stroke-miterlimit="10" x1="20" y1="21.5" x2="4" y2="21.5"></line><path fill="none" stroke="#000000" stroke-width="2" stroke-miterlimit="10" d="M4,14l2.8-0.7c0.7-0.2,1.3-0.7,1.5-1.4L9,9.2  C9.3,8.5,10,8,10.8,8h2.4C14,8,14.7,8.5,15,9.2l0.7,2.7c0.2,0.7,0.7,1.3,1.5,1.4L20,14"></path><polygon points="14.5,14 14.5,14 14.5,9 12,8 9.5,9 9.5,14 9.5,14 8,14.4 12,17.3 16,14.4 "></polygon><path d="M16.6,15.1l-8.6,3L8.7,20l8.6-3c0.5-0.2,0.8-0.7,0.6-1.3l0,0C17.7,15.2,17.2,14.9,16.6,15.1z"></path><g><path d="M9.9,18.1l3-1.1l-5.6-1.9c-0.5-0.2-1.1,0.1-1.3,0.6c-0.2,0.5,0.1,1.1,0.6,1.3L9.9,18.1L9.9,18.1z"></path><polygon points="12.9,19.2 15.3,20 16,18.1  "></polygon></g></svg>